<?xml version="1.0" encoding="UTF-8"?>
<svg id="Capa_1" data-name="Capa 1" xmlns="http://www.w3.org/2000/svg" viewBox="0 0 805 600">
  <defs>
    <style>
      .cls-1 {
        letter-spacing: 0em;
      }

      .cls-2 {
        letter-spacing: 0em;
      }

      .cls-3 {
        letter-spacing: .01em;
      }

      .cls-4 {
        letter-spacing: 0em;
      }

      .cls-5 {
        letter-spacing: -.02em;
      }

      .cls-6 {
        letter-spacing: 0em;
      }

      .cls-7 {
        letter-spacing: .01em;
      }

      .cls-8 {
        fill: #fff;
      }

      .cls-9 {
        fill: none;
        stroke: #ccc;
      }

      .cls-10 {
        letter-spacing: 0em;
      }

      .cls-11 {
        letter-spacing: -.02em;
      }

      .cls-12 {
        letter-spacing: -.02em;
      }

      .cls-13 {
        fill: #2fb1ea;
      }

      .cls-14 {
        letter-spacing: 0em;
      }

      .cls-15 {
        letter-spacing: -.03em;
      }

      .cls-16 {
        letter-spacing: 0em;
      }

      .cls-17 {
        letter-spacing: -.01em;
      }

      .cls-18 {
        letter-spacing: .02em;
      }

      .cls-19 {
        letter-spacing: 0em;
      }

      .cls-20 {
        letter-spacing: 0em;
      }

      .cls-21 {
        font-family: MyriadPro-Regular, 'Myriad Pro';
        font-size: 12px;
      }

      .cls-22 {
        fill: #6bd8dd;
      }

      .cls-23 {
        letter-spacing: -.04em;
      }

      .cls-24 {
        letter-spacing: 0em;
      }

      .cls-25 {
        fill: #f7d95c;
      }

      .cls-26 {
        letter-spacing: -.07em;
      }

      .cls-27 {
        fill: #ad4eab;
      }

      .cls-28 {
        letter-spacing: 0em;
      }

      .cls-29 {
        letter-spacing: -.01em;
      }

      .cls-30 {
        letter-spacing: -.05em;
      }

      .cls-31 {
        letter-spacing: -.01em;
      }

      .cls-32 {
        fill: #9070e8;
      }

      .cls-33 {
        letter-spacing: 0em;
      }

      .cls-34 {
        fill: #ff9c31;
      }

      .cls-35 {
        letter-spacing: 0em;
      }

      .cls-36 {
        letter-spacing: 0em;
      }

      .cls-37 {
        letter-spacing: 0em;
      }

      .cls-38 {
        letter-spacing: -.02em;
      }
    </style>
  </defs>
  <rect id="background" class="cls-8" width="805" height="600"/>
  <g id="viz">
    <g id="nodes">
      <path id="p_943.5" data-name="p 943.5" class="cls-9" d="M402.5,580c-154.64,0-280-125.36-280-280S247.86,20,402.5,20s280,125.36,280,280-125.36,280-280,280Z"/>
      <g id="Comunicación_Visual_Discurso_y_Narrativas" data-name="Comunicación Visual Discurso y Narrativas">
        <path id="p_698.7782055553462" data-name="p 698.7782055553462" class="cls-22" d="M321.32,416.46c-69.03,0-124.99-55.96-124.99-124.99s55.96-124.99,124.99-124.99,124.99,55.96,124.99,124.99-55.96,124.99-124.99,124.99Z"/>
      </g>
      <g id="Fabricación_Avanzada_Tecnologías_y_Estructuras" data-name="Fabricación Avanzada Tecnologías y Estructuras">
        <path id="p_932.7657620503965" data-name="p 932.7657620503965" class="cls-25" d="M564.3,407.47c-64.07,0-116.01-51.94-116.01-116.01s51.94-116.01,116.01-116.01,116.01,51.94,116.01,116.01-51.94,116.01-116.01,116.01Z"/>
      </g>
      <g id="Territorio_Patrimonio_y_Memorias_Sociales" data-name="Territorio Patrimonio y Memorias Sociales">
        <path id="p_983.3552045531042" data-name="p 983.3552045531042" class="cls-34" d="M450.93,571.42c-53.65,0-97.14-43.49-97.14-97.14s43.49-97.14,97.14-97.14,97.14,43.49,97.14,97.14-43.49,97.14-97.14,97.14Z"/>
      </g>
      <g id="Estrategia_Gestión_y_Pensamiento_Investigativo" data-name="Estrategia Gestión y Pensamiento Investigativo">
        <path id="p_619.4780733591024" data-name="p 619.4780733591024" class="cls-27" d="M450.56,207.92c-48.08,0-87.07-38.97-87.07-87.05,0-48.08,38.97-87.07,87.05-87.07h.03c48.08,0,87.07,38.97,87.07,87.05,0,48.08-38.97,87.07-87.05,87.07h-.03Z"/>
      </g>
      <g id="Ciencia_de_Materiales_Oficios_y_Producción_Circular" data-name="Ciencia de Materiales Oficios y Producción Circular">
        <path id="p_429.0772451418747" data-name="p 429.0772451418747" class="cls-13" d="M302.64,165.43c-32.94,0-59.65-26.71-59.65-59.65s26.71-59.65,59.65-59.65,59.65,26.71,59.65,59.65-26.71,59.65-59.65,59.65Z"/>
      </g>
      <g id="Experiencia_de_Usuario_e_Interacción_Digital" data-name="Experiencia de Usuario e Interacción Digital">
        <path id="p_775.9962069250929" data-name="p 775.9962069250929" class="cls-32" d="M307.44,507.55c-24.77,0-44.85-20.07-44.85-44.84,0-24.77,20.07-44.85,44.84-44.85h0c24.77,0,44.85,20.07,44.85,44.84,0,24.77-20.07,44.85-44.84,44.85h0Z"/>
      </g>
    </g>
  </g>
  <text class="cls-21" transform="translate(271.92 454.06)"><tspan x="0" y="0">Expe</tspan><tspan class="cls-37" x="24.3" y="0">r</tspan><tspan x="28.27" y="0">iencia de </tspan><tspan x="17.96" y="14.4">usua</tspan><tspan class="cls-37" x="41.72" y="14.4">r</tspan><tspan x="45.69" y="14.4">io</tspan></text>
  <text class="cls-21" transform="translate(248.44 92.85)"><tspan class="cls-24" x="0" y="0">C</tspan><tspan class="cls-20" x="6.92" y="0">iencia de m</tspan><tspan class="cls-35" x="64.25" y="0">a</tspan><tspan class="cls-1" x="69.98" y="0">t</tspan><tspan x="73.88" y="0">e</tspan><tspan class="cls-37" x="79.89" y="0">r</tspan><tspan x="83.87" y="0">iale</tspan><tspan class="cls-29" x="101.3" y="0">s</tspan><tspan x="105.92" y="0">, </tspan><tspan class="cls-18" x="3.04" y="14.4">O</tspan><tspan x="11.5" y="14.4">ficios y p</tspan><tspan class="cls-31" x="54.86" y="14.4">r</tspan><tspan x="58.67" y="14.4">odu</tspan><tspan class="cls-1" x="78.63" y="14.4">c</tspan><tspan x="83.94" y="14.4">cion </tspan><tspan class="cls-14" x="35.17" y="28.8">C</tspan><tspan class="cls-2" x="42.1" y="28.8">i</tspan><tspan class="cls-33" x="44.9" y="28.8">r</tspan><tspan x="48.71" y="28.8">cular</tspan></text>
  <text class="cls-21" transform="translate(400.33 108.85)"><tspan x="0" y="0">Est</tspan><tspan class="cls-4" x="14.63" y="0">r</tspan><tspan class="cls-10" x="18.49" y="0">a</tspan><tspan class="cls-1" x="24.23" y="0">t</tspan><tspan x="28.13" y="0">e</tspan><tspan class="cls-19" x="34.14" y="0">g</tspan><tspan x="40.77" y="0">ia, </tspan><tspan class="cls-6" x="54.39" y="0">G</tspan><tspan x="62.21" y="0">estión y </tspan><tspan class="cls-38" x="-15.36" y="14.4">P</tspan><tspan x="-9.28" y="14.4">ensamie</tspan><tspan class="cls-10" x="32.76" y="14.4">n</tspan><tspan class="cls-19" x="39.37" y="14.4">t</tspan><tspan x="43.27" y="14.4">o </tspan><tspan class="cls-3" x="52.4" y="14.4">I</tspan><tspan class="cls-17" x="55.39" y="14.4">n</tspan><tspan class="cls-31" x="61.9" y="14.4">v</tspan><tspan x="67.55" y="14.4">estig</tspan><tspan class="cls-10" x="91.8" y="14.4">a</tspan><tspan x="97.54" y="14.4">ti</tspan><tspan class="cls-31" x="104.31" y="14.4">v</tspan><tspan x="109.97" y="14.4">o</tspan></text>
  <text class="cls-21" transform="translate(508.77 283.99)"><tspan class="cls-30" x="0" y="0">F</tspan><tspan x="5.3" y="0">ab</tspan><tspan class="cls-37" x="17.92" y="0">r</tspan><tspan x="21.89" y="0">icación </tspan><tspan class="cls-11" x="59.83" y="0">A</tspan><tspan class="cls-10" x="66.92" y="0">v</tspan><tspan x="72.65" y="0">anzada, </tspan><tspan class="cls-26" x="-7.26" y="14.4">T</tspan><tspan x="-2.15" y="14.4">ecnolo</tspan><tspan class="cls-1" x="31.91" y="14.4">g</tspan><tspan x="38.54" y="14.4">ías y Estru</tspan><tspan class="cls-7" x="87.79" y="14.4">c</tspan><tspan x="93.32" y="14.4">tu</tspan><tspan class="cls-4" x="103.91" y="14.4">r</tspan><tspan x="107.77" y="14.4">as</tspan></text>
  <text class="cls-21" transform="translate(393.62 468.95)"><tspan class="cls-26" x="0" y="0">T</tspan><tspan x="5.11" y="0">e</tspan><tspan class="cls-37" x="11.12" y="0">rr</tspan><tspan x="19.07" y="0">i</tspan><tspan class="cls-19" x="21.88" y="0">t</tspan><tspan x="25.78" y="0">o</tspan><tspan class="cls-37" x="32.36" y="0">r</tspan><tspan class="cls-20" x="36.33" y="0">i</tspan><tspan class="cls-5" x="39.14" y="0">o</tspan><tspan x="45.44" y="0">, </tspan><tspan class="cls-15" x="50.47" y="0">P</tspan><tspan class="cls-10" x="56.54" y="0">a</tspan><tspan x="62.28" y="0">t</tspan><tspan class="cls-37" x="66.25" y="0">r</tspan><tspan x="70.22" y="0">imonio y </tspan><tspan class="cls-16" x="10.78" y="14.4">M</tspan><tspan x="20.5" y="14.4">emo</tspan><tspan class="cls-28" x="43.1" y="14.4">r</tspan><tspan x="47.08" y="14.4">ias </tspan><tspan class="cls-16" x="62.96" y="14.4">S</tspan><tspan x="68.95" y="14.4">ociales</tspan></text>
  <text class="cls-21" transform="translate(268.39 278.53)"><tspan class="cls-29" x="0" y="0">C</tspan><tspan x="6.83" y="0">omunicación</tspan><tspan class="cls-23" x="72.09" y="0"> </tspan><tspan class="cls-12" x="74.21" y="0">V</tspan><tspan x="80.71" y="0">isua</tspan><tspan class="cls-33" x="100.67" y="0">l</tspan><tspan x="103.38" y="0">, </tspan><tspan x="1.01" y="14.4">Discurso y Na</tspan><tspan class="cls-37" x="68.24" y="14.4">r</tspan><tspan class="cls-36" x="72.21" y="14.4">r</tspan><tspan class="cls-35" x="76.07" y="14.4">a</tspan><tspan x="81.81" y="14.4">ti</tspan><tspan class="cls-10" x="88.59" y="14.4">v</tspan><tspan x="94.31" y="14.4">as</tspan></text>
</svg>